<?xml version="1.0" encoding="UTF-8"?>
<svg id="LogoAtmen" xmlns="http://www.w3.org/2000/svg" viewBox="0 0 841.89 595.28">
  <defs>
    <style>
      .cls-1 {
        fill: #58603b;
      }
    </style>
  </defs>
  <path id="Atmen" class="cls-1" d="m143.63,209.17c7.01-.08,13.44,2.4,19.85,5.12-6.91-.4-13.56-1.99-19.85-5.12Zm132.4,317.65c-4.08,11.07-9.84,16.28-20.13,16.08-6.52.18-11.5-3.57-16.76-6.58-.95-.54-1.06-1.16-.37-2.47,5.28-10,10.38-20.1,15.38-30.24,1.3-2.64,2.26-4.3,5.28-1.74,1.51,1.28,3.56,2.08,5.5,2.66,8.48,2.51,14.12,14.1,11.1,22.3Zm-3.12-5.13c.03-7.32-3.31-11.53-10.95-14.56-3.24-1.28-5.21-.75-6.61,2.48-2.86,6.59-6.42,12.82-9.92,19.09-2.98,5.35-2.75,5.21,2.4,8.27,13.44,7.98,25.44-3.96,25.07-15.28Zm340.8-307.52c8.04-.5,15.52-3.39,23.04-5.94-8.02.67-15.57,3.15-23.04,5.94Zm-445.96-63.61c8.18,6.85,17.63,11.64,27.03,16.52-7.93-7.25-17.5-11.86-27.03-16.52Zm-39.61,111.6c7.02,2.1,14.26.88,21.39,1.19-.03-.3-.06-.6-.08-.9-7.12.55-14.15-1.88-21.31-.29Zm500.5.28c-.08.25-.13.5-.16.75,7.74.04,15.53.86,23.95-1.38-8.55-1.55-16.12,1.04-23.79.63Zm-300.56,278.7c-2.71-1.3-5.48-1-8.21-.45-1.62.32-2.96,1.33-3.57-1.41-.23-1.05-2.49-1.49-2.98.22-1.99,7.07-3.74,14.21-5.52,21.33-.34,1.36.45,2.32,1.75,2.61,1.59.36,1.38-.91,1.63-1.92.81-3.22,1.87-6.37,2.66-9.59,1.84-7.5,5.72-9.68,13.19-7.17,1.62.54,2.37-.13,2.87-1.27.06-1.51-.81-1.87-1.82-2.36Zm-25.16-5.93c-1.61-.6-1.84.69-2.2,1.83-1.14,3.58-2.42,7.12-3.52,10.71-1.27,4.14-7.1,7.31-11.07,5.93-3.4-1.19-5.11-5.71-3.67-10.06,1.23-3.74,2.56-7.46,3.94-11.15.36-.97,1.23-2.01-.05-2.65-1.08-.55-2.25-.37-2.83,1.16-2.07,5.4-5.13,10.47-5.4,16.81-.93,5.34,5.89,10.28,11.5,9.42,1.64-.25,4.13-2.86,4.57,1.75.17,1.78,2.07.43,2.58-.92,2.45-6.51,4.73-13.09,7.33-19.54.72-1.8.38-2.69-1.17-3.27Zm304.1-382.77h0c-1.57-.33-2.97.46-4.11,1.17-5.84,3.67-11.56,7.54-17.32,11.33.29.06.58.12.88.18,7.38-3.38,14.23-7.61,20.56-12.69Zm-254.87,394.37c-4.56-2.74-9.58-3.09-14.37-1.2-5.15,2.03-6.95,6.77-7.83,11.84.63,5.58,3.11,9.79,8,12.51,4.12,2.29,8.06.84,11.96-.59.96-.35,2.33-1.02,1.68-2.44-.67-1.47-1.94-1.59-3.34-.77-.62.37-1.38.51-1.98.89-3.67,2.34-6.7.44-9.01-2-2.44-2.58-4.97-5.52-3.26-9.79,2.99-7.44,8.74-9.01,16.04-5.39,1.37.68,2.69,1.92,3.75.15.86-1.44-.57-2.54-1.67-3.2Zm217.88-441.12c-8.91,5.61-15.79,13.37-22.58,21.24,8.41-6.14,16.66-12.45,22.58-21.24Zm-52.75-39.61c-4.63,3.35-13.71,19.78-13.05,23.5,4.61-7.7,9.49-14.61,13.05-23.5Zm-291.42,57.55s0,0,0,0c.31.27.62.53.92.8,0,0,0,0,0,0,.37.04.95.23,1.06.08.33-.46-.13-.64-.51-.77-.29-.3-.59-.6-.88-.9-5.58-5.45-10.11-12.02-17.04-16.03-.39-1.15-.92-2.05-2.62-1.38.76.72,1.43,1.35,2.1,1.99,5.44,5.63,10.57,11.59,16.98,16.21Zm386.4,91.69v.25s.39-.12.39-.12l-.39-.13ZM270.82,81.12c-1.9-2.98-3.63-6.08-5.28-9.2-1.63-3.08-3.61-5.88-6.25-8.62,4.82,9.7,9.86,18.94,15.9,27.7-.83-3.56-2.4-6.78-4.37-9.88Zm51.19-37.64c1.28,8.58,4.03,16.66,7.62,24.47-1.64-8.45-4.04-16.66-7.62-24.47Zm67.51-26.57c-.36,0-.72,0-1.09,0v46.9c.37,0,.73,0,1.1,0,1.4-15.64,1.36-31.27-.01-46.9Zm66.57,27.02c-.4-.11-.81-.21-1.21-.32-3.75,8.47-6.1,17.37-8.52,26.26l1.35.43c2.79-8.79,5.59-17.58,8.38-26.37Zm33.64,500.84c-.98-3.66-2.71-7.09-6.81-7.86-4.38-.82-8.59.08-11.36,3.97-1.37,1.93-2.36,1.69-4.17.69-3.31-1.83-6.63-1.51-9.89.64-1.47.97-2.62,4.52-5.4,1.02-.62-.77-1.95.45-1.73,2.62.73,7.14,3.15,13.92,3.85,21.02.21,2.09,1.44,1.93,2.76,1.87,1.86-.08,1.44-1.12,1.17-2.46-.95-4.6-1.66-9.26-2.49-13.88-.73-4.09,1.43-7.22,5.4-7.75,5.48-.73,6.65.23,7.55,5.19.77,4.25,1.89,8.46,3.11,12.6.42,1.43.31,4.3,2.96,3.36,1.75-.62.93-2.9.67-4.37-.8-4.45-1.83-8.86-2.77-13.29.12-3.75,1.4-6.41,5.38-7.02,4.69-.72,6.85.62,8.07,5.25,1.17,4.46,2.16,8.97,3.1,13.49.2.94.49,2.18,1.21,2.08.82-.12,1.95-.86,2.1-2.02.13-1.02.21-2.11,0-3.11-.83-4.03-1.65-8.07-2.71-12.04Zm-178.39-301.29c4.76,2.85,8.73,5.23,12.69,7.6-2.95-4.11-6.79-6.71-12.69-7.6Zm259.72,52.09s0,.01,0,.02c.02,0,.04.02.06.03l-.07-.05Zm-187.62,264.67c1.26-12.15-5.05-13.38-11.77-12.72-.71.07-1.38.51-2.09.66-2.48.55-4.43.49-3.94-3.02.45-3.21.7-6.45.97-9.69.11-1.32.3-2.84-1.76-2.88-1.87-.04-1.46,1.44-1.68,2.54-1.87,9.1-1.47,18.41-2.71,27.57-.35,2.61-.59,5.23-.81,7.86-.11,1.33.4,2.38,1.89,2.5,1.73.14,1.05-1.37,1.43-2.19,2.05-4.46.07-9.35,1.72-13.94,1.41-3.92,4.85-7.23,8.39-6.89,4.9.47,6.85,2.97,7.1,8.3.21,4.62-1.52,9.05-.98,13.68.13,1.13.23,1.99,1.69,2.04,1.45.05,1.81-.7,1.73-1.91-.28-4.16,1.58-8.18.83-11.91Zm156.93-225c-10.32-1.71-20.28-.14-29.45-4.2,4.14,4.82,21.74,7,29.45,4.2Zm-108.51-15.57s-.05.57-.03.57c.71.1,1.47.27,1.79-.67-.58-.86-1.18.07-1.76.1Zm256.73,98.19c-1.02,1.27-2.46.85-3.74.85-12.06.02-23.82,2.34-35.54,4.8-17.69,3.72-34.88,9.09-51.67,15.8-15.43,6.16-30.51,13.07-45.51,20.22-18.36,8.75-37.09,16.72-56.26,23.55-10.31,3.67-20.65,7.21-31.25,10.05-16.38,4.39-32.85,7.69-49.82,8.85-12.52.85-25.07,1.18-37.49.48-4.85-.27-9.68-.78-14.49-1.45-105.66-10.87-185.13-95.01-185.13-198.75s79.73-186.47,183.02-199.44c.49-.1.99-.19,1.48-.29.58-.08,1.17-.16,1.75-.24,1.67-.11,3.35-.23,5.02-.34,2.98-.26,5.98-.47,9-.62,3.97-.27,7.93-.54,11.9-.81,1.19,0,2.38,0,3.57.01,2.68.28,5.37.55,8.05.83,2.08.01,4.17.02,6.25.03.44.18.88.45,1.32.65,1.79.17,3.56.35,5.34.56,3.16.28,6.28.76,9.4,1.31,3.45.56,6.87,1.19,10.26,1.9.74.11,1.48.22,2.22.33,5.09,1.3,10.17,2.6,15.26,3.9l2.58.65c.54.29,1.08.58,1.62.86,2.01.65,4.01,1.32,5.99,2.03.18.02.36.05.54.06.3.13.6.26.9.38,0,.03.01.05.01.08.56.2,1.13.4,1.69.61.03,0,.06,0,.1,0l1.06.43c8.13,3.07,16.02,6.62,23.62,10.6.08.02.16.05.25.06.04.05.09.09.14.14,63.08,33.17,106.44,96.27,109.08,169.25.01.07.03.15.04.22.03,1.2.07,2.39.1,3.59-.01.28-.02.56-.03.84,0,.8.03,1.61.03,2.41,0,35.02-9.39,67.95-25.88,96.63-.12.34-.24.68-.34,1.02-.25.26-.48.53-.71.8-1.77,3-3.62,5.96-5.54,8.86-.03.06-.06.13-.09.19-.03.03-.06.07-.1.1-.03.05-.06.1-.1.15-2.55,3.34-4.92,5.94-7.09,7.99-1.54,1.65-3.18,3.19-5.11,4.47-1.8.82-3.59,1.64-5.39,2.46-1.18.1-2.36.2-3.54.3-3.28.05-5.89-2.06-8.95-2.74-8.78-4.56-17.84-8.37-27.66-10.1-4.83-2.3-9.99-3.42-15.23-4.27-4.89-1.89-10.01-2.88-15.15-3.77-1.66-1.02-3.37-1.85-5.4-1.55-3.33-1.87-6.88-3.11-10.64-3.74-1.23-1.26-2.75-1.79-4.47-1.84-.15-.45-.4-.76-.95-.63-.25-.13-.52-.2-.81-.21-.16-.47-.4-.81-.98-.69-.25-.14-.51-.2-.79-.21-.16-.48-.41-.82-.99-.69-4.41-2.76-8.82-5.52-13.23-8.28-.63-1.1-1.6-1.66-2.83-1.81-4.45-5.04-8.9-10.08-13.35-15.13-.71-2.12-1.86-3.94-3.57-5.39-.1-.69-.06-1.45-.92-1.75-4.94-10.73-8.21-22.06-9.53-33.68-1.13-9.87-2.63-19.77-2.07-29.85.43-7.89.76-15.85-.02-23.77-.18-1.87-.2-3.81.7-5.59,0-1.79,0-3.58,0-5.37l.32-2.62c1.01-5.05,2.14-10.12-1.91-14.51-1.03-3.16-2.54-6.08-4.43-8.82-2.42-4.13-1.81-8.76-2.37-13.24-1-7.93-3.17-15.73-3.88-23.67-1.19-13.24-.89-26.56-.88-39.86,1.36-.81.63-2.12.72-3.2,1-11.23,2.57-22.33,7.2-32.76,1.52.92.51,2.55,1.04,3.75-.06,1.46-.11,2.91-.17,4.37-.51.12-.83.39-.69.97-.04,1.5-.09,3-.13,4.5-1.02.26-.88,1.02-.76,1.77-.1,2.37-.2,4.73-.3,7.1-1.57,1.97-.48,4.19-.61,6.3-.02,2.68-.05,5.36-.07,8.04-.45,4.47-.31,8.94.02,13.41.02,5.96.04,11.92.05,17.88-.13.58.16.86.68,1.01-.31,5.73,1.15,11.25,2.02,16.84.34,4.81,1.92,9.31,3.29,13.87.89,2.98,2.76,6.19,5.45,5.98,3.85-.3,3.35-4.49,3.57-7.47.15-2.07.15-4.17,0-6.25-.69-10.34-3.35-20.64-.81-31.06.45-.15.79-.38.64-.96.67-1.47,1.98-2.65,1.99-4.42,1.37-1.5,2.61-3.14,4.12-4.48,7.78-6.87,17.29-6.08,26.44-5.09,9.73,1.05,18.69,5.14,27.5,9.33.86.37,1.71.74,2.57,1.1,2.71,1.54,5.43,3.08,8.14,4.61.56,1.06,1.44,1.64,2.65,1.71,11.59,7.58,22.67,15.76,32.55,25.55,4.5,4.46,8.45,9.41,13.01,13.79-.04.29.04.54.24.75,3.79,5.08,7.58,10.16,11.37,15.24,1.54,3.9,4.05,7.22,6.33,10.68-.22,1.67,1.3,2.38,1.96,3.57,1.4,2.69,2.81,5.38,4.21,8.07.66,1.48,1.32,2.96,1.98,4.45,2.12,5.06,4.24,10.13,6.36,15.19.01.6.03,1.21.04,1.81-.23.59.13.78.59.89.13.66-.15,1.48.74,1.84.14.88.29,1.75.43,2.63-.23.6.13.81.61.96,0,.29.07.56.19.82-.14.53.08.86.55,1.04.37,2.41.71,4.82,1.84,7.03.13.89.27,1.78.4,2.67-.24.6.1.82.6.95.09.87.19,1.75.28,2.62-.23.6.12.82.61.95.36,2.95.73,5.91,1.09,8.86-.13.58.17.85.69.98l.21,5.26c1.09,2.59,0,5.58,1.5,8.09.29,3.86.58,7.72.87,11.58.39,10.55-1.39,21.07-.86,31.67,9.83-22.83,15.26-47.81,15.26-73.98,0-107.8-92.01-195.5-205.11-195.5-51.94,0-99.43,18.51-135.6,48.96-7.51,6.53-14.61,13.48-21.25,20.83-8.86,9.79-16.11,20.9-22.75,32.37-7.13,12.3-13.23,25.12-17.2,38.71-4.87,16.62-8.05,33.63-7.79,51.14.13,8.69-.08,17.43.86,26.04.13,1.05.26,2.11.41,3.16.12.79.22,1.58.36,2.37,2.31,12.98,5.56,25.81,10.57,38.09,1.29,3.16,1.78,6.84,5.05,9.78.71-6.6-1.34-12.17-1.27-18.02.16-13.62.03-27.12,2.14-40.72,2.73-17.61,8.16-34.26,15.57-50.22,11.87-25.55,28.47-47.65,50.26-65.78,11.59-9.64,23.71-18.27,37.58-24.38,10.96-4.83,22.06-8.72,34.29-7.88,5.36.37,10.33,1.75,14.61,5.12,6.69,5.26,8.72,12.48,8.78,20.6.06,7.23-1.27,14.27-2.48,21.34-.66,3.85-.05,7.61,1.69,11.06,1.76,3.49,3.7,3.54,5.91.47,2.29-3.18,3-6.94,3.75-10.63,2-9.89,2.96-19.9,3.9-29.96.93-9.94,1.55-19.8.8-29.72-.78-10.39-1.87-20.75-2.83-31.13.58-.01,1.16-.02,1.74-.04.37.6.74,1.2,1.11,1.79,1.35,5.68,2.71,11.36,4.06,17.04.13.87.26,1.75.39,2.62-.03,1.24-.84,2.63.66,3.59.06,2.08.13,4.16.19,6.24-.93,3.6,1.03,6.95.93,10.49-.18,6.35-.61,12.7-.8,19.02-.35,11.5-2.03,22.73-3.71,34.05-1.44,9.68-3.58,18.89-9.23,27.04-.33.47-.71,1.04-.72,1.57-.12,6.58.48,13.1,1.64,19.57.09,2.97.19,5.93.28,8.9.01,2.43-.74,4.9.43,7.26.1.86.19,1.71.29,2.57-.15,3.82-.3,7.64-.45,11.46-1.06,3.27,0,6.65-.56,9.94-1.4,1-.61,2.38-.62,3.62-.87,9.28-1.59,18.57-3.79,27.67-1.4,4.48-2.8,8.96-4.2,13.44-.36.89-.72,1.78-1.08,2.68-.89.31-.71,1.13-.85,1.8-1.82,3.24-3.63,6.47-5.45,9.71-1.01.78-2.21,1.38-2.51,2.79-.64.88-1.29,1.76-1.93,2.63-1.72,1.28-3.36,2.64-4.54,4.47-1.76,1.54-3.52,3.08-5.28,4.62-.62-.09-.86.32-1.04.8-.84.64-1.68,1.28-2.52,1.92-.97.81-1.95,1.63-2.92,2.44-3.21,1.79-6.42,3.58-9.62,5.37-2.72,1.1-5.66,1.69-8.07,3.51-4.21,1.11-8.5,1.94-12.45,3.89-.97-.05-2.06-.66-2.73.61-6.73,1.2-13.05,3.85-19.61,5.65-4.84.83-9.64,1.81-14.3,3.41-5.21,1.36-10.58,2.26-15.25,5.21-6.53,2.02-11.86,7-19.05,7.55-1.83.14-.83,1.61.07,2.47,3.38,3.23,6.46,6.79,9.66,10.16,9.1,9.58,19.47,17.46,30.35,24.68,15.76,10.45,32.53,18.8,50.48,24.92,7.62,2.46,7.36,3.06,15.35,4.66l9.65,2.17c10.29,2.16,20.69,3.63,31.15,4.58,10.65.96,21.56.41,32.39-.39,11.94-.88,23.59-3.01,36.6-5.31-2.75,0-4.21-.2-5.59.03-22.54,3.81-45.16,2.74-67.69.42-13.86-1.43-27.4-5.07-40.66-9.49-15.22-5.07-29.76-11.56-43.51-19.6-11.59-6.57-20.32-12.74-26.83-18.02-.65-.39-1.21-.9-1.75-1.45-2.18-1.83-4.09-3.54-5.73-5.11-.92-.78-1.79-1.62-2.58-2.54-4.89-5.01-6.73-8.04-6.73-8.04.39.33.74.65,1.09.98,1.38,1.19,3.11,2.59,4.81,4.1.13.12.27.25.41.37.11.06.23.12.34.17.15.18.3.36.45.54,2.23,2.01,4.63,4.24,7.23,6.65.82.76,1.82,1.6,2.94,2.48.59.38,1.17.75,1.78,1.09.05.13.1.26.14.39,12.26,9.17,35.34,22.38,38.62,24.24,11.07,5.38,22.61,9.79,34.48,13.54,12.28,3.88,24.95,6.04,37.62,7.95,10.71,1.61,21.6,1.05,32.42,1.25,20.15.36,39.73-3.25,59.2-7.93,23.82-5.73,46.74-14.03,69.24-23.64,22.21-9.49,43.72-20.61,66.49-28.79,14.01-5.03,28.48-8.45,43.07-11.38,13.42-2.69,27.03-3.72,40.6-5.19.26.55.52,1.11.78,1.66Zm-118.42-93.19c-3.03-20.52-9.89-40.07-19.15-58.57-11.62-23.2-26.14-44.35-46.45-61.12-10.99-9.08-22.44-17.25-35.5-23.06-9.5-4.23-19.29-7.1-29.83-6.2-5.38.46-10.2,2.02-13.89,6.53-6.5,7.96-5.5,16.79-3.66,25.83,1.81,8.92,2.45,17.87-1.91,26.21-1.31,2.5-.27,3.21,1.25,3.82,6.25,2.52,12.68,2.53,18.45-.89,9.37-5.56,10.96-15.38,11.98-25.03.58-5.47.23-11.07-.71-16.59,3.39,6.07,4.05,12.77,4.62,19.61,5.41-2.54,7.91-6.87,10.06-11.59.4,1.54.6,2.73-.02,4.31-1.46,3.72-3.77,6.76-6.66,9.25-3.25,2.81-5.4,6.16-6.19,10.25-.39,2.01-1.81,3.42-2.88,6.14,5.65-2.71,10.52-4.75,15-7.78,4.76-3.22,6.47-8.59,9.99-14.1-.11,4.87-2.83,7.65-3.06,11.24,3.7.82,6.41-2.57,9.95-2.4-.1,1.26-1,1.66-1.74,2.06-10.3,5.53-20.68,10.92-30.92,16.56-7.29,4.02-14.94,5.84-23.27,5.47-2.27-.1-4.37-1.68-6.78-.76,7,8.48,23.42,16.35,34.14,16.77,20.69.8,32.95-11.43,42.97-27.44-2.79,11.74-10.94,19.34-20.58,27.02,15.28.06,27.39-4.73,36.52-16.62-1.29,5.07-5.22,7.73-8,11.27-.56.71-2.3.75-1.81,2,.49,1.25,1.77,1,3.06.73,3.29-.67,6.64-1.04,11.11-1.7-9.01,5.42-18.38,4.1-26.88,6.74,2.86,3.16,7.73,3,10.75,6.48-.91.21-1.35.41-1.76.38-.72-.06-1.49-.15-2.13-.45-11.17-5.25-22.98-5.24-34.97-4.69-8.7.4-17.35-.36-25.65-3.58-1.76-.68-3.85-2.34-6.29-.56,6.34,7.39,12.89,14.39,20.42,20.38,6.86,5.46,14.75,8.89,23.36,10.28,9.51,1.54,17.17-2.92,24.36-8.46,1.76-1.35,3.31-3.12,6.47-4.07-3.45,4.91-7.15,8.24-11.27,11.77,13.92.56,24.83-7.23,37.81-11.54-1.63,3.3-3.54,4.22-5.37,5.12-6.38,3.15-12.76,6.29-19.59,8.44-1.88.59-5.47-.13-5.34,2.54.1,2.15,3.48,2.61,5.62,3.46,7.25,2.88,14.88,2.17,22.89,2.04-1.12.82-1.74,1.65-2.47,1.76-9.25,1.3-18.75,1.59-27.14-2.56-11.66-5.76-24.56-2.35-36.34-6.59.29.97.67,1.61,1.23,2.02,11.46,8.54,22.49,17.63,35.95,23.19,9.45,3.91,18.77,5.47,28.78,2.76,2.61-.71,5.37-1.73,8.53-.93-11.46,7.24-23.87,5.16-35.94,4.23,10.42,13.31,21.63,25.28,38.77,29.48-13.45.31-23.56-6.91-34.26-15.23.78,8.79,1.63,15.9,6.64,22.09,3.36,4.15,7.61,7.46,10.6,11.89,0,0,.11-.06.11-.06,0,0,0,0,0,0h0s-.05.05-.08.07c.65.16.9.6.77,1.23-.01.06-.56.15-.66.04-.3-.33-.62-.72-.31-1.1-.61.4-1.28.02-1.7-.27-7.39-5.16-13.62-11.55-15.87-20.41-3.97-15.67-10.27-29.57-24.25-38.96-4.85-3.26-9.16-7.34-15.18-9.47,1.28,5.02,2.4,9.51,3.56,13.99,2.89,11.19,5.92,22.33,14.1,31.1,3.4,3.65,6.5,7.53,9.01,11.81,1.98,3.38,3.33,7.07,2.17,11.36-1.28-7.53-5.55-13.28-10.8-18.29-5.29-5.05-9.58-10.8-13.33-17.01-.59-.97-.76-2.3-1.99-2.32-4.34,8.64-6.82,17.61-6.01,28.12-3.25-4.36-4.07-13.19-1.88-19.87,3.44-10.49,5.84-20.75,2.7-32.05-2.81-10.09-9.26-16.97-16.5-23.55-1.2-1.09-2.29-3.74-5-2.37,2.54,5.91,5.16,11.61,5.17,18.1,0,6.39.42,12.79.26,19.17-.2,8.06-2.4,14.77-5.33,17.31,2.88-9.01,3.44-17.88,1.16-27.09-3.67,2.5-5.44,6.51-9.48,7.78,0,0,.06.12.06.11,0,0,0,0,0,0h0s0,0,0,0c-.02-.04-.04-.05-.06-.08,0,0,0,0,0,0-1.08-1.52.56-2.56,1.15-3.09,6.56-5.97,7.71-13.64,6.85-21.8-.62-5.92-2.61-11.7-5.61-16.68-2.46-4.09-6.55-7.27-10.19-10.56-3.49-3.16-6.27-7.19-11-10.21.31,3.38-.68,5.64-.78,7.92-.58,12.44-.65,24.92-.64,37.35,0,8.68.7,17.56,2.33,26.25,1.88,10.02,3.85,20.06,8.6,29.11,12.34,23.52,33.55,34.92,58.17,41.19,9.56,2.44,19.19,4.6,28.62,7.5,10.26,3.15,20.07,7.42,29.8,11.88,3.49,1.6,6.6,1.03,9.82-.94,5.31-3.26,7.93-8.6,10.82-13.64,7.77-13.54,9.25-28.74,10.68-43.85,1.12-11.84-.36-23.69-2.08-35.31Zm-344.09,91.46c3.04,3.02,6.21,4.83,10.5,2.45,13.76-7.66,28.71-12.21,43.84-16.04,14.96-3.79,30.12-6.92,43.78-14.49,14.69-8.14,25.57-19.6,31.9-35.52,5.76-14.49,7.26-29.71,8.5-44.86,1.12-13.7.65-27.57-.69-41.32-.27-2.8-.9-5.56-1.4-8.56-6.77,5.17-11.54,11.66-17.06,17.4-10.35,10.76-11.45,26.8-3.38,39.22.89,1.37,3.23,2.56,2.11,4.81-3.6-1.17-5.64-4.25-8.58-7.27-.63,8.91-1.5,17.02-.24,25.12-5.13-17.66-5.16-35.31.94-53.75-5.27,3.24-8.81,7.11-12.37,11.21-8.78,10.12-11.14,21.61-9.19,34.53.86,5.65,2.96,10.94,4.06,16.54.91,4.61-1.5,8.94.33,13.29.27.65-.56,1.44-1.32,1.51-1.83.18-1.25-1.36-1.22-2.17.36-7.97-1.7-15.33-5.21-22.4-.44-.89-.44-2.38-1.45-2.47-1.18-.1-1.15,1.34-1.53,2.28-.72,1.76-1.79,3.38-2.64,5.09-2.72,5.45-7.58,9.03-11.6,13.34-5.26,5.64-8.48,12.4-10.21,19.89-1.47-.47-1.36-1.34-1.25-1.97,1.48-8.38,4.83-15.81,11.06-21.84,4.58-4.43,8.09-9.48,10.54-15.56,3.5-8.69,4.83-17.93,7.73-26.75.62-1.87,2.8-3.62,1.38-6.28-10.1,5.57-18.92,12.53-26.29,21.32-5.36,6.39-8.84,13.61-10.81,21.74-1.86,7.67-4.52,15.08-9.97,21.17-2.08,2.33-4.46,3.81-7.62,4.52,9.34-8.67,14.37-19.12,14.42-32.16-8.3,6.18-15.94,12.96-26.36,14.76-1.14.2-2.76,1.24-3.19.07-.63-1.73,1.24-1.72,2.5-2.17,13.82-4.9,22.71-15.71,31.77-26.71-12.91,2.87-25.21,2.34-37.94-4.31,2.81-.26,4.39-.21,6.13.23,9.06,2.31,17.97,2.66,27.21-.15,8.84-2.7,16.56-7.13,24.11-12.15,5.1-3.4,10.4-6.55,14.72-10.99.57-.59,2.16-.98,1.12-2.36-.74-.98-1.71-.79-2.79-.47-5.3,1.57-10.76,1.68-16.21,1.47-2.42-.1-4.83.14-6.96,1.03-5.82,2.41-11.89,3.95-17.92,5.69-3.64,1.05-14.15.45-16.61-1.61,9.4.11,18.61-.63,27.33-5.59-12.03-4.61-23.94-8.45-33.48-16.97,12.86,4.22,24.5,12.14,39.69,13.11-4.13-4.76-7.34-8.47-10.55-12.17,4.38.79,7.15,3.92,10.2,6.44,6.23,5.15,13.52,7.18,20.97,5.4,18.32-4.39,32.33-16.75,42.31-32.17-3.12.91-5.91,1.66-8.67,2.55-10.25,3.31-20.84,5.2-31.45,3.72-8.81-1.22-16.87.06-24.9,3.17-1.6.62-3.1,1.18-5.47.24,4.28-2,7.9-3.69,11.75-5.49-9.57-1.72-18.98-2.48-28.57-6.23,4.95-.98,9.04,1.88,13.21,0-2.62-3.59-5.52-6.82-6.97-11.06,5.11,4.22,9.07,9.67,15.75,11.77,6.27,1.98,12.52,3.38,20.14,3.11-10.85-7.98-18.56-16.75-21.56-29.02,7.32,14.31,17.8,25.17,33.69,29.12,12.08,3,36.05-6.54,41.34-15.58-1.75-.47-3.4-.39-5.14.06-2.87.74-5.67.48-8.66-.21-11.05-2.56-20.28-8.78-29.88-14.26-4.55-2.6-9.55-4.49-14.37-8.45,1.91.28,2.91.42,3.91.59,1.11.19,2.22.91,3.33-.01q-2.58-5.99-2.21-9.58c3.78,9.58,10.88,15.08,19.59,18.81,1.13.48,3.65,1.63,2.94-.79-1.11-3.77-1.16-8.08-4.43-11.14-3-2.82-6.14-5.67-7.73-9.6-.73-1.81-2.76-3.66-.7-6.42,2.22,5.03,5.36,8.79,9.58,12.33-.3-7.2.13-13.96,4.4-20.03-.05,1.18.03,2.39-.19,3.54-1.76,9.37-.86,18.37,2.86,27.22,3.63,8.65,10.78,13.83,19.29,13.19,3.25-.24,6.72-1.23,8.82-3.34,1.41-1.41-1.56-3.96-2.29-6.12-.27-.82-.56-1.61-.78-2.46-2.15-8.28.3-16.25,1.45-24.34,1.35-9.48-.93-21.18-9.2-25.27-8.21-4.06-16.84-3.53-25.36-1.37-14.35,3.64-26.92,10.85-38.78,19.62-15.08,11.14-28.05,24.28-38.81,39.56-9.96,14.16-18.37,29.17-24.96,45.26-6.7,16.35-11.9,33.21-13.23,50.71-1.19,15.7-1.42,31.64,1.49,47.37,2.55,13.81,7.45,26.35,17.6,36.45Zm239.84-172.18c-4.35.4-7.53,2.86-10.42,5.83,4.07-.89,7.01-3.78,10.42-5.83Zm-201.54,88.25c-8.04,2.3-16.33,2.48-24.55,3.28,8.49,1.43,16.75.97,24.55-3.28Zm178.91,235.03c-4.37,1.69-6.79.71-7.77-3.42-.61-2.56-.65-5.25-1.09-7.85-.81-4.72.69-7.36,5.89-6.83,1.89.19,2.15-.88,2.19-2.44.06-2.37-1.49-1.09-2.26-.97-4.81.72-8.18-.23-7.75-6.12.06-.8-.68-1.69-1.21-1.49-.68.26-1.89.25-1.96,1.44-.06,1.04-.06,2.08-.07,3.12,0,2.01.57,4.28-2.84,4.09-1.06-.06-1.75,1.07-1.52,2.28.22,1.15.99,1.7,2.19,1.8,1.31.11,3.04-.63,3.11,1.92.08,3.07.36,6.17.94,9.19,1.25,6.49,2.36,10.42,8.5,10.43,1.79.51,3.48-.71,5.26-1.22,1.33-.39,2.64-1.31,1.84-3.3-.89-2.2-2.14-1.14-3.45-.63Zm104.93-44.03c-3.59-7.2-13.08-8.31-18.48-2.37-1.05,1.15-1.08,4.1-4.31,1.95-1.33-.89-1.97,1.7-1.3,3.27,2.62,6.15,5.26,12.29,7.96,18.4.64,1.45.86,3.83,3.56,2.2,2.37-1.44.3-2.7-.19-3.85-2.06-4.83-4.29-9.58-5.46-14.14.28-3.94,2.09-6.36,5.15-7.05,3.29-.75,7.07-1.09,9.07,2.67,2.31,4.34,4.42,8.81,6.31,13.35.73,1.75,1.72,1.79,3.07,1.47,1.97-.48.92-1.77.52-2.68-1.91-4.43-3.74-8.89-5.89-13.2Zm-26.1,23.37c1.5,1.56-.19,2.8-1.01,3.7-5.88,6.47-12,8.15-18.34,2.79-7.61-6.42-7.36-15.43-2.06-21.01,2.98-3.14,7.08-3.88,11.41-2.88,4.71,1.09,7.1,4.41,8.64,8.64.9,2.47-1.2,2.73-2.54,3.19-3.8,1.3-7.66,2.42-11.54,3.49-1.59.44-2.95,1.15-4.18,2.2,5.29,6.78,10.04,7.04,16.26,1.13.87-.83,1.56-3.13,3.37-1.26Zm-18.92-4.3l12.01-3.8c1.21-.4,1.48-1.9.67-2.74-.91-1.34-4.21-5.46-9.5-3.7-5.87,1.96-5.44,8.05-5.36,8.83.11.99,1.1,1.76,2.18,1.4Zm-79.72,28.86c.33.66,1.54,1.72.14,2.58-1.1.67-2.26.65-3.26-.25-.32-.29-.62-.66-.78-1.05-1.15-2.81-1.44-7.24-4.24-7.75-5.32-.98-10.94-.36-16.43-.29-1.11.01-1.63.93-2,2.04-.73,2.2-1.78,4.3-2.55,6.49-.43,1.23-.95,2.15-2.5,2.15-1.13-.34-1.77-.54-1.11-2.31,4.35-11.68,8.46-23.46,12.71-35.18.43-1.18.94-2.56,2.61-2.62,1.77-.06,1.98,1.31,2.52,2.57,4.81,11.28,9.47,22.62,14.91,33.63Zm-9.48-11.64l-6.84-17.3c-.35-.81-1.51-.77-1.81.05l-5.55,17.18c-.23.63.23,1.3.91,1.31l12.39.13c.71,0,1.19-.72.9-1.36Zm154.53-271.2s0,0,0,0c0,0,0,0,.01,0h-.01Zm-110.69,108.95s-.01-.02-.02-.04c0,0-.02,0-.02,0,0,0,.04.04.04.04Zm-42.04-210.74s.02-.01.03-.01c0,0,0-.02,0-.03l-.04.04Zm131.24,57.13s0,0,0,0c0,0,.01.02.02.03l-.02-.03Zm-126.73,120.54h0s-.02-.03-.03-.03c0,0,.03.03.03.03Z"/>
</svg>